<svg xmlns="http://www.w3.org/2000/svg" viewBox="0 0 1200 675" width="1200" height="675">
  <defs>
    <filter id="shadow" x="-20%" y="-20%" width="140%" height="140%">
      <feDropShadow dx="0" dy="3" stdDeviation="5" flood-color="#000" flood-opacity="0.06"/>
    </filter>
  </defs>
  
  <rect width="1200" height="675" fill="#f7f4ed"/>
  
  <text x="600" y="60" text-anchor="middle" fill="#1c1c1c" font-family="system-ui, sans-serif" font-size="28" font-weight="700">Paper Note Schema</text>
  <text x="600" y="95" text-anchor="middle" fill="rgba(28,28,28,0.4)" font-family="system-ui, sans-serif" font-size="16">把每篇论文拆成可横向比较的标准化字段</text>
  
  <g transform="translate(500, 180)">
    <rect width="200" height="260" rx="12" fill="#fff" stroke="#eceae4" stroke-width="1.5" filter="url(#shadow)"/>
    <rect x="15" y="20" width="170" height="12" rx="4" fill="#f15325" opacity="0.15"/>
    <rect x="15" y="45" width="130" height="8" rx="2" fill="rgba(28,28,28,0.1)"/>
    <rect x="15" y="60" width="150" height="8" rx="2" fill="rgba(28,28,28,0.1)"/>
    <rect x="15" y="85" width="170" height="8" rx="2" fill="rgba(28,28,28,0.1)"/>
    <rect x="15" y="100" width="140" height="8" rx="2" fill="rgba(28,28,28,0.1)"/>
    <rect x="15" y="125" width="160" height="8" rx="2" fill="rgba(28,28,28,0.1)"/>
    <rect x="15" y="140" width="120" height="8" rx="2" fill="rgba(28,28,28,0.1)"/>
    <rect x="15" y="165" width="170" height="8" rx="2" fill="rgba(28,28,28,0.1)"/>
    <rect x="15" y="180" width="150" height="8" rx="2" fill="rgba(28,28,28,0.1)"/>
    <rect x="15" y="205" width="140" height="8" rx="2" fill="rgba(28,28,28,0.1)"/>
    <text x="100" y="245" text-anchor="middle" fill="#f15325" font-family="system-ui, sans-serif" font-size="14" font-weight="600">原始论文 PDF</text>
  </g>
  
  <g transform="translate(80, 140)">
    <rect width="160" height="70" rx="10" fill="#fff" stroke="#eceae4" stroke-width="1.5" filter="url(#shadow)"/>
    <text x="80" y="28" text-anchor="middle" fill="#1c1c1c" font-family="system-ui, sans-serif" font-size="13" font-weight="600">citekey</text>
    <text x="80" y="50" text-anchor="middle" fill="#5f5f5d" font-family="system-ui, sans-serif" font-size="11">稳定引用标识</text>
  </g>
  
  <g transform="translate(260, 140)">
    <rect width="160" height="70" rx="10" fill="#fff" stroke="#eceae4" stroke-width="1.5" filter="url(#shadow)"/>
    <text x="80" y="28" text-anchor="middle" fill="#1c1c1c" font-family="system-ui, sans-serif" font-size="13" font-weight="600">year / venue</text>
    <text x="80" y="50" text-anchor="middle" fill="#5f5f5d" font-family="system-ui, sans-serif" font-size="11">发表年份与期刊来源</text>
  </g>
  
  <g transform="translate(760, 140)">
    <rect width="160" height="70" rx="10" fill="#fff" stroke="#eceae4" stroke-width="1.5" filter="url(#shadow)"/>
    <text x="80" y="28" text-anchor="middle" fill="#1c1c1c" font-family="system-ui, sans-serif" font-size="13" font-weight="600">research_question</text>
    <text x="80" y="50" text-anchor="middle" fill="#5f5f5d" font-family="system-ui, sans-serif" font-size="11">研究问题</text>
  </g>
  
  <g transform="translate(940, 140)">
    <rect width="160" height="70" rx="10" fill="#fff" stroke="#f15325" stroke-width="2" filter="url(#shadow)"/>
    <text x="80" y="28" text-anchor="middle" fill="#1c1c1c" font-family="system-ui, sans-serif" font-size="13" font-weight="600">identification_strategy</text>
    <text x="80" y="50" text-anchor="middle" fill="#5f5f5d" font-family="system-ui, sans-serif" font-size="11">DID / IV / RD</text>
  </g>
  
  <g transform="translate(80, 300)">
    <rect width="160" height="70" rx="10" fill="#fff" stroke="#f15325" stroke-width="2" filter="url(#shadow)"/>
    <text x="80" y="28" text-anchor="middle" fill="#1c1c1c" font-family="system-ui, sans-serif" font-size="13" font-weight="600">data_source</text>
    <text x="80" y="50" text-anchor="middle" fill="#5f5f5d" font-family="system-ui, sans-serif" font-size="11">数据来源与时期</text>
  </g>
  
  <g transform="translate(80, 390)">
    <rect width="160" height="70" rx="10" fill="#fff" stroke="#eceae4" stroke-width="1.5" filter="url(#shadow)"/>
    <text x="80" y="28" text-anchor="middle" fill="#1c1c1c" font-family="system-ui, sans-serif" font-size="13" font-weight="600">sample</text>
    <text x="80" y="50" text-anchor="middle" fill="#5f5f5d" font-family="system-ui, sans-serif" font-size="11">样本范围与筛选条件</text>
  </g>
  
  <g transform="translate(940, 300)">
    <rect width="160" height="70" rx="10" fill="#fff" stroke="#f15325" stroke-width="2" filter="url(#shadow)"/>
    <text x="80" y="28" text-anchor="middle" fill="#1c1c1c" font-family="system-ui, sans-serif" font-size="13" font-weight="600">key_findings</text>
    <text x="80" y="50" text-anchor="middle" fill="#5f5f5d" font-family="system-ui, sans-serif" font-size="11">核心估计结果</text>
  </g>
  
  <g transform="translate(940, 390)">
    <rect width="160" height="70" rx="10" fill="#fff" stroke="#eceae4" stroke-width="1.5" filter="url(#shadow)"/>
    <text x="80" y="28" text-anchor="middle" fill="#1c1c1c" font-family="system-ui, sans-serif" font-size="13" font-weight="600">limitations</text>
    <text x="80" y="50" text-anchor="middle" fill="#5f5f5d" font-family="system-ui, sans-serif" font-size="11">识别假设与数据限制</text>
  </g>
  
  <g transform="translate(320, 500)">
    <rect width="180" height="70" rx="10" fill="rgba(241,83,37,0.08)" stroke="#f15325" stroke-width="1.5" filter="url(#shadow)"/>
    <text x="90" y="28" text-anchor="middle" fill="#1c1c1c" font-family="system-ui, sans-serif" font-size="13" font-weight="600">evidence_strength</text>
    <text x="90" y="50" text-anchor="middle" fill="#5f5f5d" font-family="system-ui, sans-serif" font-size="11">A / B / C 证据评级</text>
  </g>
  
  <g transform="translate(520, 500)">
    <rect width="180" height="70" rx="10" fill="rgba(241,83,37,0.08)" stroke="#f15325" stroke-width="1.5" filter="url(#shadow)"/>
    <text x="90" y="28" text-anchor="middle" fill="#1c1c1c" font-family="system-ui, sans-serif" font-size="13" font-weight="600">page_references</text>
    <text x="90" y="50" text-anchor="middle" fill="#5f5f5d" font-family="system-ui, sans-serif" font-size="11">关键字段原文页码</text>
  </g>
  
  <g transform="translate(720, 500)">
    <rect width="180" height="70" rx="10" fill="rgba(241,83,37,0.08)" stroke="#f15325" stroke-width="1.5" filter="url(#shadow)"/>
    <text x="90" y="28" text-anchor="middle" fill="#1c1c1c" font-family="system-ui, sans-serif" font-size="13" font-weight="600">zotero_link / tags</text>
    <text x="90" y="50" text-anchor="middle" fill="#5f5f5d" font-family="system-ui, sans-serif" font-size="11">快速回链与聚类标签</text>
  </g>
  
  <path d="M 240 175 L 480 230" fill="none" stroke="#eceae4" stroke-width="1.5"/>
  <path d="M 420 175 L 500 230" fill="none" stroke="#eceae4" stroke-width="1.5"/>
  <path d="M 760 175 L 700 230" fill="none" stroke="#eceae4" stroke-width="1.5"/>
  <path d="M 940 175 L 700 250" fill="none" stroke="#f15325" stroke-width="1.5" opacity="0.4"/>
  
  <path d="M 240 335 L 480 300" fill="none" stroke="#f15325" stroke-width="1.5" opacity="0.4"/>
  <path d="M 240 425 L 500 400" fill="none" stroke="#eceae4" stroke-width="1.5"/>
  <path d="M 940 335 L 700 310" fill="none" stroke="#f15325" stroke-width="1.5" opacity="0.4"/>
  <path d="M 940 425 L 700 390" fill="none" stroke="#eceae4" stroke-width="1.5"/>
  
  <path d="M 600 440 L 600 490" fill="none" stroke="#f15325" stroke-width="1.5"/>
  <path d="M 520 530 L 410 535" fill="none" stroke="#f15325" stroke-width="1.5" opacity="0.4"/>
  <path d="M 700 530 L 810 535" fill="none" stroke="#f15325" stroke-width="1.5" opacity="0.4"/>
</svg>
